<?xml version="1.0" standalone="no"?>
<!DOCTYPE svg PUBLIC "-//W3C//DTD SVG 20010904//EN"
 "http://www.w3.org/TR/2001/REC-SVG-20010904/DTD/svg10.dtd">
<svg version="1.0" xmlns="http://www.w3.org/2000/svg"
 width="85.000000pt" height="82.000000pt" viewBox="0 0 85.000000 82.000000"
 preserveAspectRatio="xMidYMid meet">

<g transform="translate(0.000000,82.000000) scale(0.100000,-0.100000)"
fill="#000000" stroke="none">
<path d="M301 764 c-63 -23 -110 -54 -159 -108 -134 -146 -128 -374 14 -511
183 -179 488 -126 601 103 25 52 28 67 28 162 0 126 -17 172 -95 254 -72 76
-149 110 -260 113 -59 2 -99 -2 -129 -13z m69 -30 c11 -28 6 -44 -13 -44 -18
0 -39 58 -23 64 21 9 27 6 36 -20z m34 1 c-2 -14 0 -25 6 -25 5 0 10 11 10 25
0 14 4 25 8 25 11 0 9 -53 -2 -62 -18 -12 -36 4 -36 33 0 16 4 29 9 29 5 0 8
-11 5 -25z m133 7 c14 -9 5 -62 -11 -62 -20 0 -39 17 -27 24 6 4 11 16 11 27
0 20 8 23 27 11z m-57 -6 c0 -3 -4 -8 -10 -11 -5 -3 -10 -1 -10 4 0 6 5 11 10
11 6 0 10 -2 10 -4z m-196 -75 c-3 -3 -14 5 -24 19 -21 27 -26 21 -9 -12 16
-30 4 -32 -15 -3 -14 22 -15 29 -5 42 12 13 16 12 36 -13 12 -16 20 -31 17
-33z m323 48 c9 -9 8 -15 -2 -25 -7 -8 -15 -19 -17 -26 -4 -10 -8 -10 -21 1
-21 17 -21 25 -1 45 18 19 26 20 41 5z m-382 -45 c18 -19 15 -38 -7 -42 -25
-5 -51 27 -37 44 15 18 24 18 44 -2z m425 9 c0 -3 -8 -15 -17 -25 -16 -18 -16
-18 3 -12 17 7 17 6 5 -9 -10 -13 -17 -15 -27 -6 -11 9 -10 15 4 35 16 23 32
31 32 17z m-263 -9 c-3 -3 -12 -4 -19 -1 -8 3 -5 6 6 6 11 1 17 -2 13 -5z m90
0 c-3 -3 -12 -4 -19 -1 -8 3 -5 6 6 6 11 1 17 -2 13 -5z m-155 -19 c-58 -25
-92 -55 -122 -108 -16 -29 -30 -47 -30 -41 0 5 13 31 30 57 29 47 109 107 139
107 9 -1 1 -7 -17 -15z m218 0 c17 -9 30 -18 30 -21 0 -4 -59 23 -69 32 -10 9
13 3 39 -11z m-339 -53 c-13 -4 -63 33 -55 41 4 3 20 -4 36 -16 16 -12 24 -23
19 -25z m159 19 c0 -5 -7 -11 -15 -15 -9 -3 -15 0 -15 9 0 8 7 15 15 15 8 0
15 -4 15 -9z m96 -25 c5 -32 8 -34 29 -24 30 13 71 3 79 -19 6 -16 6 -16 -12
0 -35 31 -82 16 -82 -27 -1 -12 -10 4 -20 34 -23 62 -24 70 -10 70 5 0 12 -15
16 -34z m186 -31 c11 -21 10 -20 -37 35 l-30 35 28 -25 c16 -14 33 -34 39 -45z
m64 54 c3 -6 0 -15 -7 -20 -19 -12 -29 -11 -29 2 0 5 5 7 10 4 6 -3 10 -1 10
5 0 7 -6 10 -12 7 -7 -2 -12 -14 -11 -26 3 -25 -12 -28 -21 -5 -12 32 42 62
60 33z m-530 -29 c12 0 12 -3 2 -20 -15 -24 -26 -25 -49 -4 -14 13 -16 21 -8
35 9 17 12 18 25 4 9 -8 22 -15 30 -15z m559 -50 c-3 -6 -13 -10 -21 -10 -8 0
-14 -4 -14 -10 0 -5 -6 -10 -12 -10 -7 1 1 12 17 25 20 16 25 25 15 25 -9 0
-21 -5 -28 -12 -6 -6 -14 -9 -18 -6 -3 4 7 13 23 21 24 13 29 13 36 1 4 -8 5
-19 2 -24z m-575 -12 c0 -4 -8 -4 -17 -1 -16 6 -16 5 -4 -11 13 -16 12 -17
-15 -10 -37 9 -37 9 -30 32 6 18 10 19 36 9 17 -6 30 -15 30 -19z m401 -5 c56
-65 89 -124 89 -163 0 -59 -71 -144 -137 -164 -22 -7 -23 -5 -23 51 0 45 5 64
20 81 15 16 18 26 11 44 l-10 23 -1 -25 c-1 -15 -4 -19 -7 -10 -2 8 -7 22 -11
30 -3 8 -7 29 -8 45 -3 27 -2 28 6 8 5 -13 13 -23 18 -23 14 0 12 44 -3 67
-18 27 -19 45 -3 61 18 18 23 16 59 -25z m-200 10 c11 -15 11 -16 -1 -5 -20
17 -50 15 -74 -5 -21 -18 -21 -18 -2 5 23 26 58 29 77 5z m389 -22 c0 -5 -13
-14 -30 -20 -38 -13 -40 1 -2 16 15 6 28 11 30 12 1 1 2 -3 2 -8z m-407 -13
c2 -7 0 -21 -5 -30 -5 -11 -5 -18 0 -18 13 0 29 21 35 45 4 19 5 19 6 -1 1
-27 -31 -56 -53 -48 -13 5 -16 -1 -16 -35 0 -23 5 -41 10 -41 9 0 15 22 11 43
-1 4 8 3 19 -3 11 -6 20 -20 20 -30 0 -11 7 -20 15 -20 8 0 14 -5 13 -11 -2
-6 14 -20 35 -31 40 -21 46 -38 22 -58 -11 -9 -14 -23 -9 -44 5 -31 4 -32 -30
-33 -29 -1 -36 3 -34 15 2 11 -5 18 -19 20 -16 2 -23 -2 -23 -12 0 -9 -4 -16
-8 -16 -12 0 -83 52 -101 73 -7 9 -17 15 -21 12 -5 -3 -12 0 -16 6 -5 8 -3 9
6 4 10 -6 11 -4 5 11 -28 70 -28 69 -5 120 16 34 35 57 59 72 41 24 77 28 84
10z m-213 -8 c22 -7 21 -8 -12 -9 -21 -1 -38 4 -38 9 0 11 14 11 50 0z m355 1
c3 -5 1 -12 -5 -16 -5 -3 -10 1 -10 9 0 18 6 21 15 7z m275 -30 c0 -18 -35
-35 -52 -25 -12 7 -10 34 3 34 5 0 7 -4 4 -10 -3 -5 -2 -10 3 -10 6 0 12 7 16
15 8 21 26 19 26 -4z m-622 -20 c-4 -20 -34 -26 -53 -11 -22 19 -8 37 26 32
21 -3 29 -9 27 -21z m622 -48 c0 -25 -1 -25 -18 -10 -21 20 -32 22 -32 6 0 -5
5 -7 10 -4 6 3 10 1 10 -4 0 -6 -7 -11 -16 -11 -25 0 -12 33 16 41 14 4 26 7
28 8 1 1 2 -11 2 -26z m-620 -13 c0 -15 -7 -20 -28 -20 -35 0 -45 9 -31 27 18
21 59 17 59 -7z m598 -33 c13 0 17 -33 4 -40 -12 -8 -62 5 -56 14 3 5 10 7 15
4 13 -9 11 9 -3 24 -11 12 -9 13 7 6 11 -4 26 -8 33 -8z m-582 -8 c3 -6 1 -16
-5 -22 -8 -8 -11 -6 -12 9 0 17 -1 17 -9 -3 -10 -24 -40 -32 -40 -12 0 14 30
38 47 39 6 0 15 -5 19 -11z m-4 -59 c-13 -11 -20 -24 -16 -34 3 -9 2 -16 -4
-16 -12 0 -24 44 -13 48 4 1 17 9 27 17 27 20 33 7 6 -15z m541 13 c-24 -9
-13 -23 12 -17 14 3 25 4 25 1 0 -15 -13 -37 -22 -37 -6 0 -5 6 2 15 11 13 8
14 -19 9 -17 -4 -31 -2 -31 3 0 13 22 33 35 32 5 0 4 -3 -2 -6z m-507 -30
c-11 -11 -48 -14 -41 -3 3 5 16 10 27 10 12 0 18 -3 14 -7z m49 -23 c10 -11
16 -20 13 -20 -3 0 -13 9 -23 20 -10 11 -16 20 -13 20 3 0 13 -9 23 -20z m-45
-20 c0 -5 -5 -10 -11 -10 -5 0 -7 5 -4 10 3 6 8 10 11 10 2 0 4 -4 4 -10z
m480 -4 c0 -3 -4 -8 -10 -11 -5 -3 -10 -1 -10 4 0 6 5 11 10 11 6 0 10 -2 10
-4z m-423 -40 c-4 -9 -18 -16 -33 -16 l-27 0 23 25 c25 26 48 20 37 -9z m391
-8 c10 -12 11 -18 4 -18 -7 0 -12 5 -12 11 0 5 -4 8 -10 4 -5 -3 -7 -12 -3
-20 3 -8 -1 -15 -8 -15 -7 0 -10 3 -6 6 3 4 -1 13 -9 21 -20 20 -32 7 -16 -17
15 -24 15 -30 2 -30 -5 0 -12 11 -16 25 -3 14 -10 22 -15 19 -5 -3 -4 -14 2
-25 6 -12 8 -23 5 -27 -8 -8 -13 -1 -20 28 -5 21 0 29 36 51 26 15 45 21 47
15 2 -6 10 -19 19 -28z m-331 -8 c21 -11 44 -20 51 -20 10 0 12 -6 7 -17 -4
-10 -8 -24 -8 -30 0 -7 -4 -13 -9 -13 -5 0 -6 12 -2 28 4 21 3 24 -5 12 -9
-13 -11 -12 -12 5 0 11 -3 14 -6 8 -2 -7 -9 -13 -14 -13 -4 0 -5 7 -2 17 4 10
2 14 -4 10 -6 -4 -13 -1 -16 5 -2 7 -8 9 -13 5 -5 -4 -2 -12 5 -16 10 -7 11
-13 2 -27 -9 -16 -10 -17 -11 -2 0 12 -6 15 -22 10 -22 -5 -22 -5 -5 12 9 10
17 24 17 32 0 18 3 18 47 -6z m213 -25 c17 -20 8 -50 -15 -50 -20 0 -31 25
-21 51 7 18 20 18 36 -1z m-111 -8 c8 -11 6 -20 -9 -37 -25 -28 -29 -25 -23
18 6 35 14 40 32 19z m40 -35 c2 28 21 31 21 4 0 -39 -36 -35 -42 4 -6 42 6
49 13 8 4 -18 7 -25 8 -16z m-139 8 c0 -5 -5 -10 -11 -10 -5 0 -7 5 -4 10 3 6
8 10 11 10 2 0 4 -4 4 -10z"/>
<path d="M347 720 c3 -11 7 -20 9 -20 2 0 4 9 4 20 0 11 -4 20 -9 20 -5 0 -7
-9 -4 -20z"/>
<path d="M510 700 c0 -5 5 -10 10 -10 6 0 10 5 10 10 0 6 -4 10 -10 10 -5 0
-10 -4 -10 -10z"/>
<path d="M575 689 c-4 -11 -4 -23 -1 -26 3 -4 6 1 6 10 0 8 5 17 12 19 9 3 9
6 1 11 -7 4 -14 -1 -18 -14z"/>
<path d="M190 655 c0 -8 2 -15 4 -15 2 0 12 -3 21 -7 15 -5 16 -3 6 15 -13 25
-31 29 -31 7z"/>
<path d="M130 582 c0 -12 19 -26 26 -19 2 2 -2 10 -11 17 -9 8 -15 8 -15 2z"/>
<path d="M105 520 c3 -5 8 -10 11 -10 2 0 4 5 4 10 0 6 -5 10 -11 10 -5 0 -7
-4 -4 -10z"/>
<path d="M95 430 c3 -5 13 -10 21 -10 8 0 14 5 14 10 0 6 -9 10 -21 10 -11 0
-17 -4 -14 -10z"/>
<path d="M90 370 c0 -5 9 -10 20 -10 11 0 20 5 20 10 0 6 -9 10 -20 10 -11 0
-20 -4 -20 -10z"/>
<path d="M720 320 c0 -5 5 -10 11 -10 5 0 7 5 4 10 -3 6 -8 10 -11 10 -2 0 -4
-4 -4 -10z"/>
<path d="M220 170 c0 -5 5 -10 10 -10 6 0 10 5 10 10 0 6 -4 10 -10 10 -5 0
-10 -4 -10 -10z"/>
<path d="M595 170 c-3 -5 -1 -10 4 -10 6 0 11 5 11 10 0 6 -2 10 -4 10 -3 0
-8 -4 -11 -10z"/>
<path d="M490 106 c0 -15 18 -31 26 -23 7 7 -7 37 -17 37 -5 0 -9 -6 -9 -14z"/>
<path d="M391 104 c0 -11 3 -14 6 -6 3 7 2 16 -1 19 -3 4 -6 -2 -5 -13z"/>
</g>
</svg>
